/* XPM */
static char *wall0[] = {
/* columns rows colors chars-per-pixel */
"64 64 178 2 ",
"   c #0D0906",
".  c #0F0A08",
"X  c #120E0B",
"o  c #16120E",
"O  c #19140E",
"+  c #161411",
"@  c #1A1612",
"#  c #1D1915",
"$  c #1E1C19",
"%  c #370F0B",
"&  c #29110D",
"*  c #34120E",
"=  c #231612",
"-  c #2D1510",
";  c #221B16",
":  c #291D16",
">  c #221E1A",
",  c #291E19",
"<  c #3F1613",
"1  c #331A15",
"2  c #3D1916",
"3  c #311C19",
"4  c #3C1D19",
"5  c #282017",
"6  c #25211D",
"7  c #2A231D",
"8  c #2E281F",
"9  c #31251E",
"0  c #3D201D",
"q  c #262421",
"w  c #2A2622",
"e  c #2D2924",
"r  c #2E2D29",
"t  c #312621",
"y  c #322B25",
"u  c #3A2E26",
"i  c #332E2A",
"p  c #392E2A",
"a  c #2E302C",
"s  c #373027",
"d  c #3A3127",
"f  c #35312D",
"g  c #3B332D",
"h  c #3E382F",
"j  c #363431",
"k  c #3A3632",
"l  c #373835",
"z  c #3D3934",
"x  c #3D3C3A",
"c  c #410F0A",
"v  c #4B110D",
"b  c #461411",
"n  c #4D1714",
"m  c #431915",
"M  c #491A16",
"N  c #431E1B",
"B  c #591512",
"V  c #541814",
"C  c #650F0B",
"Z  c #691310",
"A  c #651E1A",
"S  c #6D1F1C",
"D  c #731A15",
"F  c #791916",
"G  c #43221E",
"H  c #4A231D",
"J  c #65201B",
"K  c #432522",
"L  c #4B2522",
"P  c #472A26",
"I  c #412C28",
"U  c #542521",
"Y  c #532D2A",
"T  c #5E2F2D",
"R  c #42352D",
"E  c #4A352E",
"W  c #45382F",
"Q  c #49382F",
"!  c #55312D",
"~  c #443731",
"^  c #4B3532",
"/  c #433C34",
"(  c #4A3C34",
")  c #423E3A",
"_  c #4B3E39",
"`  c #553733",
"'  c #533C35",
"]  c #5B3B36",
"[  c #523E38",
"{  c #662723",
"}  c #642926",
"|  c #6B2825",
" . c #642B28",
".. c #762220",
"X. c #732A27",
"o. c #7A2822",
"O. c #722E2B",
"+. c #79312E",
"@. c #623634",
"#. c #6D3734",
"$. c #643A35",
"%. c #643E39",
"&. c #693C38",
"*. c #7C3732",
"=. c #7C3D37",
"-. c #723E39",
";. c #464037",
":. c #4B4136",
">. c #44413C",
",. c #4B443C",
"<. c #4D483F",
"1. c #504137",
"2. c #53443C",
"3. c #5A443E",
"4. c #54493F",
"5. c #64433E",
"6. c #6B443F",
"7. c #74423C",
"8. c #3F4240",
"9. c #454442",
"0. c #4A4642",
"q. c #464847",
"w. c #4C4945",
"e. c #474949",
"r. c #4D4C4A",
"t. c #534641",
"y. c #594540",
"u. c #534B44",
"i. c #5A4D45",
"p. c #524E4A",
"a. c #5C4E49",
"s. c #4E504D",
"d. c #565047",
"f. c #5B5047",
"g. c #55514C",
"h. c #5B534B",
"j. c #4F5150",
"k. c #555451",
"l. c #5A5651",
"z. c #545957",
"x. c #5C5954",
"c. c #565C5A",
"v. c #5C5C59",
"b. c #634E46",
"n. c #6A4947",
"m. c #6F4F46",
"M. c #604F4A",
"N. c #744A43",
"B. c #7E4F47",
"V. c #61554E",
"C. c #60584F",
"Z. c #72534B",
"A. c #645650",
"S. c #635B54",
"D. c #695B54",
"F. c #625E5A",
"G. c #65625C",
"H. c #6A625B",
"J. c #73645D",
"K. c #646460",
"L. c #696661",
"P. c #6C6964",
"I. c #6F6C68",
"U. c #716D67",
"Y. c #716D68",
"T. c #72706A",
"R. c #83100E",
"E. c #823632",
"W. c #883631",
"Q. c #843833",
"!. c #8C3934",
"~. c #833E38",
"^. c #933E3A",
"/. c #84433F",
"(. c #8E403D",
"). c #884A44",
"_. c #924640",
"`. c #86514C",
/* pixels */
"l j > l 9.9.i z F.D.H.H.0.l k.j.k.k.j.q.e.) @ $ $ # q # > l z @ i ,.,.7 $ j 7 j q + x k.k.r.j.p.e ~ t._ / w r j w + o $ a q q j.",
"p.p.j i j l r k ,.,.2.0.w j 9.w.e.r.q.9.9.k i 9.e.9.) j / V.l._ > , 6 e f k $ $ > > e j r j j i # + , + + e r i a l 9.j.z.s.l l ",
") _ e $ e e 6 ; ; , , ; + a i x 8.8.8.9.9.x r ) >.9.9.x k u.4.u.( r <.<.d.g.j g.L.G.l.e.j 7 q f k ) w.x e q.w.q.r.j.r.z.c.c.c.c.",
"i q i a.h.S.A.i._ 7 y i # r i i r i a j l j q j l z x x z 2.2.u.z f h.h.g.w.r g.K.K.G.S.F.F.F.D.F.F.F.u.w j >.q.z.c.c.c.c.c.c.z.",
"i k _ 4.t.i.i.f.A.a.w p # @ > @ $ > > $ $ $ # r r r r r i ,.( s 7 # e y e 6 @ q j k j j x _ / k k _ k y > 6 w r 8.e.s.w.8.8.8.l ",
"k.A.g ^ ( ,.:.1._ ^ , p y r i e w > X q r r r e > $ + + 5 i g 6 o ) q.x z >.r.s.p.p.> i p.w.9.9.) 9.x , y r.w.;.f + 5 7 w 7 6 6 ",
"g.0., , 7 t u ^ ~ , 0.A.A.M.a.y.M.[ 6 e.r.c.K.z.k.9.e >.r.h.G.g.6 z.F.x.F.F.G.c.k.k.i k p.p.p.u.w.w./ 6 6 / / ;.z O d R R W R W ",
"7 > i k.a.,.u ; , ( y.y.y.y.y.y._ 7 r 9.9.q.q.q.9.8.q f r y g j w 9.9.8.9.0.9.9.8.q.k 8.0.k k g g k q k u.h.u.,.e O W Q Q Q Q Q ",
"7 / d.C.h.<.t.y p t.2.3.[ 3.[ _ w O f 9.x 9.8.9.9.x a g.g.>.f w > k ) x x l j j a w $ x ) k i i i y # w e 7 6 7 # ; W E E E ^ ^ ",
"g.<.,.,.,.( ( d R [ _ ^ ^ ^ p 7 s s w l l l l x z j + z z j f k > > q > $ # $ $ $ @ + $ r w , # > 6 > o y g ~ ( u.t d W W E Q Q ",
"e ;./ ( / W h 7 @ ; , , = + . + y h 5 + # 6 6 $ $ $ + j >.w.w.g.x k _ ) y > p.k.k.g.j.9.j $ y ,.0.u._ 6 A.D.A.D.h., ; u R I 8 7 ",
"O 8 7 7 6 , ; @ y ( 2.,.2.p y t 7 7 6 >.9.9.r.r.9.8.e >.0.w.w.q.e / 3.3.~ 7 x.h.k.l.k.g.k.p.j k ) ,.y , i.b.b.a.h ; ; ; 7 7 7 i ",
"> ; 7 g g g e O t ( 2.u.i.f.a.f.h.,.7 r.r.r.r.r.e.r.e e x 9.0.>.> p R y 7 @ l 0.0.,.9.0.0./ , $ w 7 ; 7 t.y.i.( ; ,.h.f.h.h.h.h.",
"C.h.C.S.S.i.~ y ,.h i 7 ~ _ :.:.( g 6 x z k f f f z q $ w e 6 $ e x f i y @ O # 6 7 > > $ @ i A.h.u.( ; p ~ i o w <.u.u.2.,.t.u.",
"f.V.f.u./ u 8 u.h.,.( 7 p.u._ f ;.f O r f f f r # o a s.r.r.>.+ k l.F.G.x.,.w l x 9.0.0.8.> ) a.i.2.R X # > @ q k y ; 7 7 t t y ",
"w d d i ; O y h W h p q x.F.x.x.v.9.5 >.<.>.>.;.k e l q.r.r.g.z j k.h.p.p.r.w w.u.t.u.p.u.e _ [ E I @ , g.p.p.x.x.h.7 d ( 1.2.[ ",
",./ g ; q u.) ; # 7 7 ; 6 6 6 6 r r # > 6 6 $ 5 6 5 $ a >.0.q.z r w.r.0.r.z # a i y w 6 $ o s d 9 : # # f z ) f y y 7 _ 2.2.2.3.",
"y.u.t.p / S.h.i ,.h.g.f.u.,.z 5 x >.;.z g f r r z >.j # 6 f f w > 7 7 w e q q 5 q l j i a $ s g g / r.0.6 w k > + g 2.t.4.2.2.2.",
"g p w + >.f.,.i u.f.h.h.l.h.u.f 0.0.w.w.<.<.>.;.s 5 e d.u.,.e z r.u.u.g.x.l.d.f 9.k.r.r.9.f r.g.d.w.0.,.g l h.u._ y w y t 8 t 7 ",
", e i ; ,.h.,.t ,.,.k ~ h s 7 e >.;.,.<.>.<.>./ z 8 y f.<.4.e / 0.u.l.x.h.,.;.s e x x x x 6 >.w.0.w.>.>.k y r.w.0.j > u.w.w./ o ",
"p.A.h.y h d.;.; p t > w t r > q z / / / >.;.>.;./ f 7 / ( ~ @ k u.u.u.0./ h ;.h > q $ > $ o 7 r r r a a 7 O e e q # # ;.u.u.s 7 ",
"t.,.,.h s u.h ; 0.l.A.F.S.F._ 6 s f i r r s r i f 7 6 ,.,.R @ k ;.z h g g y e 6 6 # z 0.;.;.;.z g g f s ; a x.g.0.k f 7 6 s ; ^ ",
"g k i t y g 5 @ w i i p / ) 7   + # > 7 7 e 6 5 $ o 6 u.h.,.i w e e w 7 e 7 # i i @ g k h / h ;.;.W / h 8 6 h g g z z e @ $ o t ",
"~ k p 7 o q _ p.M.t._ _ ~ _ g r w s ,.u.2.w.,.0.,.,.s ( ( W i . 7 / ,.u.d.u.g @ e ) f i e f e $ o o X o f / ;.z / / , i 0.k i ( ",
"_ 0.y.a.w t _ a.i.b.a.i.y.y.b.y.t g ,.u.2.0.,.2.,.2.k t ~ / i o ;.u.u.<.<.,.8 f g.x.g.g.g.g.g.l # d 8 = ,.f.f.f.f.u.7 z w.k w ~ ",
"I ~ g ~ i , t p ^ ( [ [ 2.y.y.[ , h ,.( ,.0.,.,.,.0.g @ i t , w j f s y s e 7 g.h.g.d.<.;.h 7 7 R 4.:.8 d :.2.2.4.,.w z 0.k + X ",
"7 t y p 7 f g.w y y i u p p ~ i @ y g s i p p i s k 8 o @ i z.c.s.9.>.l a + 6 d.p.<.) 7 e 6 8 <.f.f.4.1.d ;./ 2.2.( t ) e.k q y ",
"7 , ; @ > w f g J.A.b.t._ t t.p.i.l.g.q.0.9.8.6 7 >.>.h 7 e.e.9.>.x j e e $ 6 / x h 6 6 z z e ;.Q W h y 7 d g ( ( / 7 e p w / ,.",
"~ / i k u.x w w -.!.~.N.$.G @.A.^.n.&.n.n.5.@.} P ! ^ ` N ^ @./ l k N M 9 m 7 L 2 B & # e d b m m < c v * c & O , 7 @ $ 9._ ) / ",
"o o o y w.w.z w M R.C v V P  .^ X.~ ..Y  . ...Z | o.X.Y M U | Y j d { _.).`.).^.~.=.5.z $ < X.Q.(.(.(.(.!.F n ) x.x.0.w a.0.) ~ ",
"a.l.~ r u.k.p.u.y.%.1 N ! ` @.^ T ^ T ^ ! Y N * N H H 4 % 4 K I j r H (.b.N.Z.B.Z.m.Z.P.x.u A =.7.7.7.6.n.T ` F.k.k.u., i i e > ",
"D.J.S._ i 0.2.w.u.0.> e k f k k k k l j j w r 8.2.( : ; t t 3 w 3 = & E / z >.;./ z z / ,.i 1 2.u.u.4.:.;._ 7 i h ~ i @ , y f / ",
"i.3.3.i.t t / z ;._ 6 6 w q $ # 6 8 7 # # w u.w.5.Q.J 7.`./.E.&.+.#.O.A 0.8.x l x 9.>.x r e w z ( h z z k i + , q $ X w 0.2.;./ ",
"3.3.1.1.s w h h z z w z ) >.k s <.<.<.<.g 6 >.,.' o.D 7.N.E.W.5.&.5.*.S t.r.r.j.s.s.j.e.9.q.x r O o o O # q q.k.0.x r e ; @ ; > ",
"( 1.1.[ 9 8 h / h y @ g z k g w >.d.d.<./ # i / E H - ` ] ] 3.[ Y I K 0 _ q.e.e.q.9.9.9.9.8.l q $ x 9.9.e.r.k.j.e.w.e.) $ 7 ;.u.",
"u 9 5 7 6 7 t i i e e f i y w # 6 e 8 6 6 $ q y f w $ 6 q e e e 6 6 > 6 j j i i j a j j r 6 # # x 8.9.9.9.e.r.r.e.9.0.x 6 ;.u.w.",
"u.( 9 / 2.4.4.4.i.V.S.S.2.7 ; f w.<.>.a l e.e.j.s.9.9.j # 6 # l x.x.F.d.> , i t 8 8 t y y g h , j l x l x x x l j l a e + 7 f e ",
"a.4.u d 2.2.2.1.2.2.4.2.1.( 2.s >.4.w.h q r.q.q.8.8.8.8.e >.>.w ;.x.h.r.q k t.t.4.4.4.4.:.;.( , $ r i j a a l j a 6 e e e j l >.",
"2.0.i u 1.:.[ ,.[ :.( ^ ( ( / , y ;.>.W $ e.e.8.8.x x l i q.q./ w f g 7 @ w t y d h W ;.:.:./ 7 ;.,.>.;.i e e q > >.k.p.<.u.w.w.",
"w y , ; g W ^ ( ( W W d u t 7 @ 7 g s y > i j a e q 6 # w 0.9.0.e # i i w 6 , , 5 5 @ O 6 5 ; 7 r.w.w.u.k.g.u.) 6 / ;.) x x ) ) ",
"w f x l k r q , , q 6 w i j i q <.d.h.l.h.f.,.;.2.f.h.,.y w.0.9.e q u.u.i.i.t.,.2._ i 7 p.x e @ i ) >.,.,.,.,.l 6 f j f s e s $ ",
"f q.9.r.F.L.v.q.l w.g.x.v.v.p.~ 4.d.S.H.C.C.V.i.4.H.H.H.( s j e # # r g j g t 7 y e 7 p.k.j.r.) f e f k k k i q g.x.l.x.F.G.U.F.",
"r i r r q.k.w.g.x.w.0.q.0.j q q <.4.4.3.3.2.2.2.b.H.D.4.,.i o r q.k.x j j a r i j $ w r._ 9.9.9.q.k w r q e 6 # z <.w.w.g.g.g.g.",
"s.e q k.p.w.r.g.p.r.0.) / ) w.y d ,.4.2.2.2.1.2.4.V.3.:.( h , e q.r.q.r.e.e.e.e.9.f y q.0.9.9.) ) y z w.q.r.p.) a e 6 7 / w.;.;.",
"x q j k.) 9.x k j f j f f j s 6 @ ; y R R W W W W W d d 5 y z k e f 8.9.9.9.9.e.9.l r >.8.) x x j > 9.9.x >.9.9.<.l a w.z 6 e 7 ",
"> + 6 i q e e e w w 6 # e f s w 5 g d 7 O > ; O # # 5 @ O z ) g f $ q l x 8.8.9.x l w e w w e q + $ u.) / ) x / z f ;.l.u.7 6 e ",
"u.0.) w ) F.l.A.x.S.;.s 4.u.u./ s h.h.;.7 z 7 y ;.;.;.z 8 k j j f $ o 6 q a x l j x e @ w r w w e > 8.x l x j f a $ x <.;.7 h <.",
"s k g @ y / ~ k h k 6 7 g s s 7 $ / / y $ k g 7 a y e 7 ; e y e 6 + > y $ , q q 6 > q >.p.g.h.x.g.q f k a 5 X . X # <.<.h # y j ",
"@ $ w r j r $ q e q q # o r w $ 6 7 ; f x g.l.s.w.r.g.9.$ e z >.>.8 ;.d.4.4.4.<.,.6 6 w.w.u.d.<.0.w . # $ 8 e 8 # 6 >.<.f 6 y s ",
"e k.k.j.g.s.9.w.s.e.e.a 6 ;.>.,.g.w.y >.9.>.x 8.>.>.>.>.q w.l.d.;.d 5 ;.,.:.<.;.y 7 7 s f f 6 5 ; , @ j ,.<.<.<.z 8 ;.>.e h h.d.",
"r e.r.q.q.q.q.9.q.q.q.j r z h g >.k # e f l z l l z z z 6 <.>.z z 7 > e s a a > f g.G.h.d.k 6 f k s > 0.d.d.d.,.h 7 s s O s h.h.",
"> x x x x x z 8.>.x j 6 # 6 5 7 # O e i r $ # 6 e r 6 $ $ r y e > a k.v.k.p.w.e >.g.r.r.w.h # f g 6 X / h.f.f.4.;.e O 8 s t s ;.",
"f $ # + + + + # # # O > f 0.g.g._ r h.g.u.9.,.g.r.w.7 $ >.9.g.r.>.a 8.>.8.x l $ $ r e e r w $ + 6 r w / u.u.4.u.4.4.s 5 e ; d ,.",
"x.g.;./ y f / h y 8 e ,.<.4.w.;.z 6 / 9.,.,.w.w.,.,.6 a >.9.z.g.8.6 @ > 6 6 7 j / >.>.<.w.g.d.f e u.<.<.4.u.<.u.u.<.:.6 O y 4.4.",
"/ s y > + , / >.:.h 7 / / / g 7 ; O ; w f ) z s r 6 O x w.8.>.9.x $ e >.w.u.<.u.g.p.p.d.g.d.u.0.e h z <.h.f.4.<.<.<.:.s 7 4.4.4.",
"6 i x 0.r.i 7 h ;.;.d ; ; 7 w s >.p.>.g y $ $ 7 6 8 $ j l z l j a # h <.<.w.<.u.<.u.<.;.;.;.( ( 8 5 7 g ;.;.W ;.:./ h 8 e :.;.W ",
"k.F.v.h.g.g.i > 7 8 8 O 7 9.g.h.h.g.p.h.p.7 f z z k e w l k j j > $ g h ;.;.,.;.( / / / W / ( h ; # d y 8 5 7 ; ; > O O @ 7 7 5 ",
"a.k.p.0.>.) g k z h z w >.d.d.r.w.r.u.r.>.# s z k k e # i k i w e w.x i 6 7 i R ( 2.2.,.^ d t 7 s / :.4.4.4.W 5 d 2./ W g 4.u.u.",
"9.) ) l k w @ y >.;.;.7 f j f j g j f e 6 w 6 f g f > X $ $ # q w.w.w.0.l e ; 7 y p p y 7 : 9 ^ a.t.7 d d 8 5 ( u.i.u.,.g 4.4.4.",
"# $ $ X + > i y f e 6 # X $ >.0.0.q.q.) > x f 6 6 6 , i k.x.p.j 8.w.q.0.0.z $ ; e > O ; u ( 2.1.2.2.W 9 O X / h.u.i.i.4.d 5 8 8 ",
"q.r.t.j q z.L.v.x.k.x.k.<.w >.0.,.>.) f @ 8.r.9.>.f $ g.I.P.Y.g.j ) ) l e q x c.c.r.y _ 2.3.2.3.3.3.2.4.R 7 i.C.h.V.V.V.i.d 8 ;.",
"h.k.k.g.x i 9.) ) ) 0.w.s.w 6 r e e q 6 6 l <.w.<.a f G.P.P.G.L.9.> $ w w >.k.g.p.p.k g 2.3.2.2.2.2.2.3.W 8 u.V.D.D.C.C.C.S.4.8 ",
"g.g.r.0.9.e i k f j i r q f ,.w.u.w.w.<.;.a ) <.w.a 8.H.P.P.G.G.G.z w k.k.g.x.g.g.p.0.t W 1.2.3.2.[ 3.1.i > :.4.4.b.i.i.f.f.u.9 ",
"w.0.) ) 0.j q e e r w + k h.w.,.,.,.<.<.;.> 8.q.>.e w.T.P.Y.P.G.G.x.k k.x.x.F.v.v.x.k.,.7 R ^ Q ^ R u > 7 7 t ;.2.2.1.2.2.,.Q 8 "
};
